<?xml version="1.0" encoding="UTF-8" standalone="no"?>
<svg
   class="sc-epmkiF bIPWJp"
   enable-background="new 0 0 24 24"
   fill="#FF6000"
   version="1.1"
   viewBox="0 0 24 24"
   id="svg906"
   sodipodi:docname="android_opt.svg"
   inkscape:version="1.1.2 (76b9e6a115, 2022-02-25)"
   xmlns:inkscape="http://www.inkscape.org/namespaces/inkscape"
   xmlns:sodipodi="http://sodipodi.sourceforge.net/DTD/sodipodi-0.dtd"
   xmlns="http://www.w3.org/2000/svg"
   xmlns:svg="http://www.w3.org/2000/svg">
  <defs
     id="defs910" />
  <sodipodi:namedview
     id="namedview908"
     pagecolor="#ffffff"
     bordercolor="#999999"
     borderopacity="1"
     inkscape:pageshadow="0"
     inkscape:pageopacity="0"
     inkscape:pagecheckerboard="0"
     showgrid="false"
     inkscape:zoom="33.625"
     inkscape:cx="11.98513"
     inkscape:cy="12"
     inkscape:window-width="2560"
     inkscape:window-height="1016"
     inkscape:window-x="0"
     inkscape:window-y="27"
     inkscape:window-maximized="1"
     inkscape:current-layer="g904" />
  <style
     type="text/css"
     id="style900">.st0{fill:#3DDB85;}
	.st1{fill:none;}</style>
  <g
     transform="matrix(0.091461,0,0,0.091461,-9.3582,-4.1192)"
     id="g904">
    <path
       class="st0"
       d="m 293.91,212.77 c -6.0252,0 -10.926,-4.9046 -10.926,-10.93 0,-6.0254 4.9011,-10.926 10.926,-10.926 6.0254,0 10.926,4.901 10.926,10.926 0,6.025 -4.9009,10.93 -10.926,10.93 m -120.77,0 c -6.0254,0 -10.926,-4.9046 -10.926,-10.93 0,-6.0254 4.9009,-10.926 10.926,-10.926 6.0252,0 10.926,4.901 10.926,10.926 0,6.025 -4.9011,10.93 -10.926,10.93 m 124.69,-65.82 21.838,-37.822 c 1.252,-2.1739 0.50714,-4.9507 -1.6632,-6.2061 -2.1704,-1.2519 -4.9507,-0.50713 -6.2061,1.6632 l -22.111,38.301 c -16.909,-7.7168 -35.9,-12.015 -56.164,-12.015 -20.264,0 -39.254,4.2982 -56.163,12.015 l -22.111,-38.301 c -1.2554,-2.1704 -4.0358,-2.9151 -6.2061,-1.6632 -2.1704,1.2554 -2.9186,4.0322 -1.6632,6.2061 l 21.838,37.822 c -37.499,20.395 -63.146,58.359 -66.898,103.21 h 262.41 c -3.7554,-44.851 -29.403,-82.814 -66.898,-103.21"
       id="path902"
       style="fill:#000000" />
  </g>
</svg>
