<?xml version="1.0" encoding="UTF-8" standalone="no"?>
<svg
   class="sc-epmkiF bIPWJp"
   enable-background="new 0 0 24 24"
   fill="#FF6000"
   version="1.1"
   viewBox="0 0 24 24"
   id="svg1068"
   sodipodi:docname="apple_opt.svg"
   inkscape:version="1.1.2 (76b9e6a115, 2022-02-25)"
   xmlns:inkscape="http://www.inkscape.org/namespaces/inkscape"
   xmlns:sodipodi="http://sodipodi.sourceforge.net/DTD/sodipodi-0.dtd"
   xmlns="http://www.w3.org/2000/svg"
   xmlns:svg="http://www.w3.org/2000/svg">
  <defs
     id="defs1072" />
  <sodipodi:namedview
     id="namedview1070"
     pagecolor="#ffffff"
     bordercolor="#999999"
     borderopacity="1"
     inkscape:pageshadow="0"
     inkscape:pageopacity="0"
     inkscape:pagecheckerboard="0"
     showgrid="false"
     inkscape:zoom="35.166667"
     inkscape:cx="12"
     inkscape:cy="12.014218"
     inkscape:window-width="2560"
     inkscape:window-height="1016"
     inkscape:window-x="0"
     inkscape:window-y="27"
     inkscape:window-maximized="1"
     inkscape:current-layer="svg1068" />
  <path
     d="m21.684 18.766c-0.36295 0.83849-0.79257 1.6103-1.2903 2.3199-0.6785 0.96738-1.234 1.637-1.6622 2.0088-0.66368 0.61035-1.3748 0.92294-2.1362 0.94071-0.54665 0-1.2059-0.15555-1.9733-0.4711-0.7699-0.31407-1.4774-0.46961-2.1244-0.46961-0.6785 0-1.4062 0.15555-2.1845 0.46961-0.77953 0.31555-1.4075 0.47999-1.8876 0.49628-0.7302 0.03111-1.458-0.29036-2.1845-0.9659-0.46369-0.40443-1.0437-1.0977-1.7385-2.0799-0.74546-1.0489-1.3583-2.2651-1.8385-3.6517-0.51421-1.4977-0.77198-2.9481-0.77198-4.3522 0-1.6084 0.34754-2.9956 1.0437-4.1581 0.5471-0.93375 1.2749-1.6703 2.1859-2.211 0.91094-0.54072 1.8952-0.81627 2.9552-0.8339 0.57998 0 1.3406 0.1794 2.2857 0.53198 0.94249 0.35377 1.5477 0.53317 1.813 0.53317 0.19836 0 0.87064-0.20977 2.0103-0.62798 1.0777-0.38784 1.9873-0.54843 2.7325-0.48517 2.0192 0.16296 3.5362 0.95893 4.545 2.393-1.8059 1.0942-2.6992 2.6267-2.6814 4.5927 0.0163 1.5314 0.57184 2.8057 1.6637 3.8175 0.4948 0.46961 1.0474 0.83256 1.6622 1.0903-0.13333 0.38666-0.27406 0.75701-0.42369 1.1126zm-4.631-18.223c0 1.2003-0.43851 2.321-1.3126 3.3583-1.0548 1.2331-2.3306 1.9457-3.7141 1.8333-0.01763-0.144-0.02785-0.29555-0.02785-0.4548 0-1.1523 0.50161-2.3854 1.3924-3.3937 0.44473-0.5105 1.0103-0.93498 1.6962-1.2736 0.68442-0.33356 1.3318-0.51803 1.9407-0.54962 0.01777 0.16046 0.02518 0.32093 0.02518 0.48012z"
     stroke-width=".020216"
     id="path1066"
     style="fill:#000000" />
</svg>
